<svg width="60" height="60" viewBox="0 0 60 60" fill="none" xmlns="http://www.w3.org/2000/svg">
<path fill-rule="evenodd" clip-rule="evenodd" d="M25.5498 49C25.8259 49 26.0498 49.2239 26.0498 49.5V59.9H34.0498V54H39.95C47.6261 54 53.85 47.7762 53.85 40.1C53.85 32.4239 47.6261 26.2 39.95 26.2H34.0498V14.4H39.95C43.2079 14.4 45.85 17.0422 45.85 20.3H53.85C53.85 12.6239 47.6261 6.40002 39.95 6.40002H38.6644C37.7111 6.40002 36.8902 7.07294 36.7033 8.00779L36.1052 10.9981C36.0585 11.2318 35.8532 11.4 35.6149 11.4H34.5498C34.2737 11.4 34.0498 11.1761 34.0498 10.9V0.5H26.0498V6.40002H20.15C12.4739 6.40002 6.25 12.6239 6.25 20.3C6.25 27.9762 12.4739 34.2 20.15 34.2H26.0498V46H20.15C16.8921 46 14.25 43.3579 14.25 40.1H6.25C6.25 47.7762 12.4739 54 20.15 54H21.4356C22.3889 54 23.2098 53.3271 23.3967 52.3923L23.9948 49.4019C24.0415 49.1682 24.2468 49 24.4851 49H25.5498ZM34.0498 46H39.95C43.2079 46 45.85 43.3579 45.85 40.1C45.85 36.8422 43.2079 34.2 39.95 34.2H34.0498V46ZM26.0498 26.2V14.4H20.15C16.8921 14.4 14.25 17.0422 14.25 20.3C14.25 23.5579 16.8921 26.2 20.15 26.2H26.0498Z" fill="#14121F"/>
</svg>
