<svg width="60" height="60" viewBox="0 0 60 60" fill="none" xmlns="http://www.w3.org/2000/svg">
<path d="M26.8134 18.083L17.6792 2.24817L12.31 5.33657L20.9749 20.3421L5.12915 12.6156L2.41179 18.1704L19.3707 26.4425H0V32.6411H17.5155L26.9117 23.2449V21.5861L26.8134 18.083Z" fill="#14121F"/>
<path d="M18.0824 33.1866L2.24756 42.3208L5.33596 47.69L20.3414 39.0251L12.615 54.8709L18.1697 57.5882L26.4419 40.6293V60H32.6405V42.4845L23.2443 33.0883H21.5855L18.0824 33.1866Z" fill="#14121F"/>
<path d="M33.187 41.9281L42.3213 57.763L47.6905 54.6637L39.0255 39.6582L54.8713 47.3956L57.5887 41.8299L40.6298 33.5578H60.0005V27.3701H42.485L33.0888 36.7553V38.4141L33.187 41.9281Z" fill="#14121F"/>
<path d="M41.9281 26.8134L57.763 17.6792L54.6637 12.31L39.6582 20.9749L47.3956 5.12915L41.8299 2.41179L33.5578 19.3707V0H27.3701V17.5155L36.7553 26.9117H38.4141L41.9281 26.8134Z" fill="#14121F"/>
</svg>
