<svg width="60" height="60" viewBox="0 0 60 60" fill="none" xmlns="http://www.w3.org/2000/svg">
<path fill-rule="evenodd" clip-rule="evenodd" d="M0 26H7.3466C8.73202 18.0997 14.1493 11.5872 21.3989 8.66218C22.4594 8.23432 23.6113 8.89676 23.8851 10.007L24.4062 12.1197C24.4613 12.3431 24.6616 12.5 24.8917 12.5H25.5C25.7761 12.5 26 12.2761 26 12L26 3.49691e-07L34 0V7.3466C41.9003 8.73202 48.4128 14.1493 51.3378 21.3989C51.7657 22.4594 51.1032 23.6113 49.993 23.8851L47.8803 24.4062C47.6569 24.4613 47.5 24.6616 47.5 24.8917V25.5C47.5 25.7761 47.7239 26 48 26L60 26V34H52.6534C51.268 41.9003 45.8507 48.4128 38.6011 51.3378C37.5406 51.7657 36.3888 51.1032 36.1149 49.993L35.5938 47.8803C35.5387 47.6569 35.3384 47.5 35.1083 47.5H34.5C34.2239 47.5 34 47.7239 34 48L34 60H26V52.6534C18.0997 51.268 11.5872 45.8507 8.66219 38.6011C8.23433 37.5406 8.89676 36.3887 10.007 36.1149L12.1197 35.5938C12.3431 35.5387 12.5 35.3384 12.5 35.1083V34.5C12.5 34.2239 12.2761 34 12 34L3.49691e-07 34L0 26ZM46.5 30C46.5 39.1127 39.1127 46.5 30 46.5C20.8873 46.5 13.5 39.1127 13.5 30C13.5 20.8873 20.8873 13.5 30 13.5C39.1127 13.5 46.5 20.8873 46.5 30Z" fill="#14121F"/>
<rect x="26" y="26" width="8" height="8" fill="#14121F"/>
</svg>
