<svg width="60" height="61" viewBox="0 0 60 61" fill="none" xmlns="http://www.w3.org/2000/svg">
<path d="M5.75 36.093L38.4727 1.08203L35.7422 20.5618C35.5836 21.6931 34.6783 22.573 33.543 22.6994L26.9348 23.4351C26.6816 23.4633 26.4901 23.6773 26.4901 23.932V24.9596C26.4901 25.2357 26.714 25.4596 26.9901 25.4596H33.4727V25.4711L53.75 25.4711L21.0273 60.4821L23.2954 41.0556C23.431 39.894 24.3538 38.9816 25.5168 38.8592L32.5811 38.1157C32.8356 38.0889 33.0288 37.8744 33.0288 37.6185V36.5936C33.0288 36.3175 32.805 36.0936 32.5288 36.0936H26.0273V36.093H5.75Z" fill="#14121F"/>
</svg>
