<svg width="182" height="49" viewBox="0 0 182 49" fill="none" xmlns="http://www.w3.org/2000/svg">
<path d="M22.066 0.333496V13.1993L15.0301 2.47419L10.5372 5.69963L17.4602 16.1127H20.9878C21.2279 16.1127 21.4537 16.2327 21.5881 16.4343L22.3974 17.6486H26.9863V0.333496H22.066Z" fill="#F4F4F4"/>
<path d="M2.46145 14.3872L13.6085 20.8117L0.794922 21.5484L1.34243 27.0442L13.8342 26.2642L15.5944 23.2092C15.7145 23.0004 15.9306 22.866 16.1707 22.8492L17.6259 22.7532L19.924 18.7814L4.91562 10.1226L2.46145 14.3872Z" fill="#F4F4F4"/>
<path d="M4.82917 38.386L15.9762 31.9519L10.1986 43.3969L15.2486 45.6768L20.8101 34.4742L19.0427 31.4191C18.9226 31.2104 18.913 30.956 19.0211 30.74L19.6647 29.4392L17.3666 25.4674L2.3654 34.1214L4.82917 38.386Z" fill="#F4F4F4"/>
<path d="M26.8038 35.4653L33.8494 46.1904L38.3423 42.965L31.4192 32.5447H27.882C27.6419 32.5447 27.4186 32.4247 27.2841 32.2255L26.4749 31.0184H21.8859V48.3335H26.8038V35.4653Z" fill="#F4F4F4"/>
<path d="M46.418 34.2774L35.271 27.8433L48.0749 27.1138L47.5274 21.618L35.0428 22.398L33.2755 25.4554C33.1554 25.6642 32.9393 25.7986 32.6991 25.813L31.2439 25.909L28.953 29.8808L43.9518 38.542L46.4156 34.2774H46.418Z" fill="#F4F4F4"/>
<path d="M44.0503 10.2786L32.9033 16.7127L38.6713 5.26765L33.6309 2.98776L28.0694 14.1904L29.8295 17.2479C29.9496 17.4542 29.9568 17.7086 29.8511 17.9222L29.2124 19.2254L31.5033 23.1972L46.502 14.5432L44.0479 10.2786H44.0503Z" fill="#F4F4F4"/>
<path d="M179.232 13.7623C177.91 10.9047 176.016 8.70772 173.596 7.21919C171.184 5.73067 168.318 4.98242 165.079 4.98242C161.839 4.98242 158.973 5.73067 156.554 7.21919C154.134 8.70772 152.239 10.9047 150.918 13.7623C149.604 16.6041 148.944 20.1622 148.944 24.3333C148.944 28.5043 149.612 32.0227 150.918 34.8803C152.239 37.7539 154.134 39.9668 156.554 41.4474C158.965 42.9359 161.831 43.6841 165.079 43.6841C168.326 43.6841 171.184 42.9359 173.596 41.4474C176.016 39.9588 177.91 37.7539 179.232 34.8803C180.545 32.0227 181.206 28.4725 181.206 24.3333C181.206 20.1941 180.537 16.6041 179.232 13.7623ZM170.07 36.743C168.669 37.6186 166.989 38.0723 165.087 38.0723C163.184 38.0723 161.544 37.6265 160.128 36.743C158.703 35.8594 157.58 34.6097 156.776 33.0097C155.98 31.4018 155.566 29.4834 155.566 27.2865V21.3801C155.566 19.1513 155.972 17.209 156.776 15.6011C157.572 14.0091 158.703 12.7673 160.12 11.8997C161.544 11.0321 163.208 10.5943 165.087 10.5943C166.965 10.5943 168.669 11.0321 170.078 11.8917C171.487 12.7594 172.593 14.0011 173.397 15.5932C174.193 17.2011 174.607 19.1433 174.607 21.3721V27.2785C174.607 29.4755 174.201 31.3938 173.397 33.0018C172.601 34.5938 171.479 35.8515 170.078 36.735L170.07 36.743Z" fill="#F4F4F4"/>
<path d="M80.9411 24.4289C80.6307 23.9751 80.0496 23.7761 79.5322 23.9751L76.985 24.9144C76.5392 25.0736 76.173 24.5323 76.4994 24.1901L92.5468 5.61929H85.1042L74.8278 17.9733L69.8767 24.2139V5.61133H63.6758V43.0474H69.8767V31.2506L74.6606 25.8298L85.8445 42.9121L85.9321 43.0474H93.4622L80.9411 24.4209V24.4289Z" fill="#F4F4F4"/>
<path d="M134.119 5.75659V43.2006H140.368V15.4014C140.368 14.9477 140.105 14.5258 139.691 14.3188L136.825 12.9179C136.395 12.7109 136.539 12.0662 137.024 12.0662H140.375V5.75659H134.119Z" fill="#F4F4F4"/>
<path d="M95.1736 43.0553H101.717L105.044 32.8744H118.648L121.975 43.0553H128.311L115.488 5.61926H107.981L107.91 5.82622L95.1577 43.0633L95.1736 43.0553ZM106.62 27.4139L111.874 11.645L117.08 27.4139L117.876 29.8337C118.019 30.2715 117.462 30.5819 117.159 30.2397L115.066 27.8278C114.835 27.5651 114.509 27.4139 114.158 27.4139H106.62Z" fill="#F4F4F4"/>
</svg>
